# xmcd CD database file
#
# Track frame offsets:
#	150
#	19815
#	35885
#	55080
#	69897
#	84590
#	99012
#	113227
#	131845
#	147945
#	167617
#	190897
#	217450
#	234855
#	263270
#
# Disc length: 4251 seconds
#
# Revision: 7
# Processed by: cddbd v1.5.2PL0 Copyright (c) Steve Scherf et al.
# Submitted via: CDex 1.51
#
DISCID=cb10990f
DTITLE=t.A.T.u - 200 KM/H IN THE WRONG LANE
DYEAR=2003
DGENRE=Pop
TTITLE0=Not Gonna Get Us
TTITLE1=All The Things She Said
TTITLE2=Show Me Love
TTITLE3=30 Minutes
TTITLE4=How Soon Is Now ?
TTITLE5=Clowns (Can You See Me Now ?)
TTITLE6=Malchik Gay
TTITLE7=Stars
TTITLE8=Ya Shosla S Uma
TTITLE9=Nas Ne Dagoniat
TTITLE10=Show Me Love (Extend Version)
TTITLE11=30 Minutes (Remix) *
TTITLE12=Malchik Gay (Remix Edit) *
TTITLE13=All The Things She Said (dj Monk's Breaks Mix Edit) *
TTITLE14=Bonus Movie
EXTD=YEAR: 2003
EXTT0=
EXTT1=
EXTT2=
EXTT3=
EXTT4=
EXTT5=
EXTT6=
EXTT7=
EXTT8=
EXTT9=
EXTT10=
EXTT11=
EXTT12=
EXTT13=
EXTT14=
PLAYORDER=
